<svg fill="#1A1A1A" xmlns="http://www.w3.org/2000/svg" xmlns:xlink="http://www.w3.org/1999/xlink" version="1.1" x="0px" y="0px" viewBox="0 0 100 100" enable-background="new 0 0 100 100" xml:space="preserve"><g><g><polyline fill="none" stroke="#1A1A1A" stroke-width="0.3053" stroke-miterlimit="10" points="25.312,20.783 28.705,20.766     28.734,26.382 31.792,29.408 31.84,38.768   "></polyline><polyline fill="none" stroke="#1A1A1A" stroke-width="0.3053" stroke-miterlimit="10" points="22.515,23.021 24.511,24.297     27.082,23.641 27.111,29.198 29.688,29.77 29.712,34.45   "></polyline><polyline fill="none" stroke="#1A1A1A" stroke-width="0.3053" stroke-miterlimit="10" points="33.491,41.1 29.747,41.119     29.722,36.322 25.356,29.324 25.342,26.633   "></polyline><polyline fill="none" stroke="#1A1A1A" stroke-width="0.3053" stroke-miterlimit="10" points="22.528,25.595 22.545,28.754     25.371,32.249 25.388,35.409 27.031,36.336 27.072,44.292 25.436,44.769 25.447,46.758   "></polyline><polyline fill="none" stroke="#1A1A1A" stroke-width="0.3053" stroke-miterlimit="10" points="22.639,46.773 22.624,43.847     24.841,42.666 24.82,38.805 22.597,38.816 22.581,35.657 19.986,31.692 19.954,25.608   "></polyline><polyline fill="none" stroke="#1A1A1A" stroke-width="0.3053" stroke-miterlimit="10" points="21.501,30.514 23.625,33.897     23.641,36.939   "></polyline><polyline fill="none" stroke="#1A1A1A" stroke-width="0.3053" stroke-miterlimit="10" points="22.437,41.625 20.62,41.167     20.595,36.194 17.406,30.536 17.392,27.845   "></polyline><line fill="none" stroke="#1A1A1A" stroke-width="0.3053" stroke-miterlimit="10" x1="14.247" y1="30.552" x2="18.138" y2="36.207"></line><polyline fill="none" stroke="#1A1A1A" stroke-width="0.3053" stroke-miterlimit="10" points="11.801,32.671 13.439,32.663     15.212,36.222 16.968,36.213   "></polyline><polyline fill="none" stroke="#1A1A1A" stroke-width="0.3053" stroke-miterlimit="10" points="10.871,33.963 12.645,37.581     19.198,37.547   "></polyline><polyline fill="none" stroke="#1A1A1A" stroke-width="0.3053" stroke-miterlimit="10" points="19.204,38.834 17.455,39.896     13.594,39.916 13.603,41.671 18.751,41.644   "></polyline><polyline fill="none" stroke="#1A1A1A" stroke-width="0.3053" stroke-miterlimit="10" points="12.425,40.273 10.734,37.581     9.72,37.596 9.749,43.095 20.045,43.042   "></polyline><polyline fill="none" stroke="#1A1A1A" stroke-width="0.3053" stroke-miterlimit="10" points="7.636,41.702 7.652,44.861     16.427,44.816 18.193,46.796 20.884,46.782   "></polyline><polyline fill="none" stroke="#1A1A1A" stroke-width="0.3053" stroke-miterlimit="10" points="7.659,46.149 13.158,46.12     15.098,47.982 15.126,53.364   "></polyline><line fill="none" stroke="#1A1A1A" stroke-width="0.3053" stroke-miterlimit="10" x1="7.67" y1="48.255" x2="12.467" y2="48.23"></line><polyline fill="none" stroke="#1A1A1A" stroke-width="0.3053" stroke-miterlimit="10" points="7.678,49.775 13.06,49.747     13.669,54.308 17.076,57.098 20.118,57.082   "></polyline><line fill="none" stroke="#1A1A1A" stroke-width="0.3053" stroke-miterlimit="10" x1="11.403" y1="51.862" x2="7.689" y2="51.882"></line><polyline fill="none" stroke="#1A1A1A" stroke-width="0.3053" stroke-miterlimit="10" points="11.411,53.384 11.423,55.607     13.917,57.114   "></polyline><polyline fill="none" stroke="#1A1A1A" stroke-width="0.3053" stroke-miterlimit="10" points="17.066,55.226 22.507,55.198     22.535,60.463   "></polyline><polyline fill="none" stroke="#1A1A1A" stroke-width="0.3053" stroke-miterlimit="10" points="17.057,53.412 23.726,53.319     23.713,50.862 18.214,50.891 17.051,52.154   "></polyline><polyline fill="none" stroke="#1A1A1A" stroke-width="0.3053" stroke-miterlimit="10" points="17.03,48.206 28.672,48.145     28.661,46.039 29.757,42.991   "></polyline><polyline fill="none" stroke="#1A1A1A" stroke-width="0.3053" stroke-miterlimit="10" points="24.875,49.335 28.678,49.315     28.686,50.836 24.883,50.856 24.923,58.578   "></polyline><polyline fill="none" stroke="#1A1A1A" stroke-width="0.3053" stroke-miterlimit="10" points="26.835,60.44 26.804,54.473     30.518,54.454 30.493,49.657 38.823,53.884   "></polyline><line fill="none" stroke="#1A1A1A" stroke-width="0.3053" stroke-miterlimit="10" x1="27.106" y1="50.844" x2="27.119" y2="53.302"></line><polyline fill="none" stroke="#1A1A1A" stroke-width="0.3053" stroke-miterlimit="10" points="29.783,48.139 40.079,48.086     43.579,45.962 43.52,34.612 44.567,33.612   "></polyline><polyline fill="none" stroke="#1A1A1A" stroke-width="0.3053" stroke-miterlimit="10" points="29.772,46.034 31.869,44.15     41.463,44.1 38.785,46.689 31.882,46.724   "></polyline><line fill="none" stroke="#1A1A1A" stroke-width="0.3053" stroke-miterlimit="10" x1="35.619" y1="45.418" x2="35.626" y2="46.705"></line><polyline fill="none" stroke="#1A1A1A" stroke-width="0.3053" stroke-miterlimit="10" points="31.862,42.98 41.925,42.928     41.9,38.131   "></polyline><polyline fill="none" stroke="#1A1A1A" stroke-width="0.3053" stroke-miterlimit="10" points="34.9,42.029 34.885,39.221     33.479,38.76 33.441,31.622 34.857,33.838   "></polyline><polyline fill="none" stroke="#1A1A1A" stroke-width="0.3053" stroke-miterlimit="10" points="36.886,41.55 36.872,38.742     34.876,37.465 34.866,35.652 37.909,35.636 34.842,31.03   "></polyline><polyline fill="none" stroke="#1A1A1A" stroke-width="0.3053" stroke-miterlimit="10" points="38.758,41.54 40.045,41.534     40.024,37.439 37.918,37.45 38.748,39.493   "></polyline><polyline fill="none" stroke="#1A1A1A" stroke-width="0.3053" stroke-miterlimit="10" points="26.941,19.136 31.738,19.111     31.772,25.547 29.657,23.92 29.643,21.229   "></polyline><polyline fill="none" stroke="#1A1A1A" stroke-width="0.3053" stroke-miterlimit="10" points="31.777,26.6 34.83,28.69     34.817,26.116 36.34,26.576 36.36,30.437 38.957,34.636   "></polyline><polyline fill="none" stroke="#1A1A1A" stroke-width="0.3053" stroke-miterlimit="10" points="33.413,26.123 33.379,19.688     36.306,20.024 36.328,24.119 34.808,24.361 34.794,21.67   "></polyline><polyline fill="none" stroke="#1A1A1A" stroke-width="0.3053" stroke-miterlimit="10" points="29.625,17.719 35.475,17.688     39.952,23.632 39.981,29.248   "></polyline><polyline fill="none" stroke="#1A1A1A" stroke-width="0.3053" stroke-miterlimit="10" points="37.849,24.111 37.878,29.727     40.828,34.626   "></polyline><polyline fill="none" stroke="#1A1A1A" stroke-width="0.3053" stroke-miterlimit="10" points="39.987,30.36 44.55,30.336     41.876,33.626 41.89,36.259   "></polyline><line fill="none" stroke="#1A1A1A" stroke-width="0.3053" stroke-miterlimit="10" x1="42.269" y1="30.348" x2="40.813" y2="31.584"></line><polyline fill="none" stroke="#1A1A1A" stroke-width="0.3053" stroke-miterlimit="10" points="34.059,15.472 37.047,16.276     38.645,19.661 44.525,25.48 44.545,29.341 41.532,29.24   "></polyline><line fill="none" stroke="#1A1A1A" stroke-width="0.3053" stroke-miterlimit="10" x1="42.89" y1="26.074" x2="42.907" y2="29.233"></line><polyline fill="none" stroke="#1A1A1A" stroke-width="0.3053" stroke-miterlimit="10" points="34.998,49.633 40.087,49.607     40.103,52.532 37.55,51.083   "></polyline><polyline fill="none" stroke="#1A1A1A" stroke-width="0.3053" stroke-miterlimit="10" points="31.912,52.575 31.935,57.021     28.718,57.037 28.747,62.537   "></polyline><polyline fill="none" stroke="#1A1A1A" stroke-width="0.3053" stroke-miterlimit="10" points="29.852,61.361 33.596,61.341     33.564,55.14   "></polyline><line fill="none" stroke="#1A1A1A" stroke-width="0.3053" stroke-miterlimit="10" x1="33.585" y1="59.118" x2="30.894" y2="59.132"></line><polyline fill="none" stroke="#1A1A1A" stroke-width="0.3053" stroke-miterlimit="10" points="33.554,53.268 38.013,55.702     38.055,63.658 35.831,63.67 35.797,57   "></polyline><polyline fill="none" stroke="#1A1A1A" stroke-width="0.3053" stroke-miterlimit="10" points="30.362,63.699 33.608,63.682     33.619,65.671 38.065,65.647   "></polyline><polyline fill="none" stroke="#1A1A1A" stroke-width="0.3053" stroke-miterlimit="10" points="39.537,67.512 39.476,55.812     43.024,51.698 46.066,51.682 46.047,48.055 47.557,45.941   "></polyline><line fill="none" stroke="#1A1A1A" stroke-width="0.3053" stroke-miterlimit="10" x1="41.638" y1="49.599" x2="44.651" y2="49.583"></line><polyline fill="none" stroke="#1A1A1A" stroke-width="0.3053" stroke-miterlimit="10" points="43.144,49.591 46.498,44.776     46.463,38.107   "></polyline><polyline fill="none" stroke="#1A1A1A" stroke-width="0.3053" stroke-miterlimit="10" points="44.791,41.509 44.767,36.829     46.445,34.597 46.429,31.555   "></polyline><polyline fill="none" stroke="#1A1A1A" stroke-width="0.3053" stroke-miterlimit="10" points="52.301,13.388 52.315,16.079     54.783,18.056 54.818,24.725 51.785,26.496 51.816,32.463   "></polyline><polyline fill="none" stroke="#1A1A1A" stroke-width="0.3053" stroke-miterlimit="10" points="50.036,27.675 50.071,34.578     53.348,34.561 53.359,36.726 56.869,36.707 56.92,46.594 54.942,48.711 54.975,55.029   "></polyline><polyline fill="none" stroke="#1A1A1A" stroke-width="0.3053" stroke-miterlimit="10" points="51.841,37.377 48.682,37.394     48.661,33.269 46.414,28.63   "></polyline><polyline fill="none" stroke="#1A1A1A" stroke-width="0.3053" stroke-miterlimit="10" points="37.797,14.283 39.281,18.371     45.545,24.071 45.564,27.64 48.632,27.624   "></polyline><polyline fill="none" stroke="#1A1A1A" stroke-width="0.3053" stroke-miterlimit="10" points="50.429,13.398 50.444,16.089     53.267,18.999 53.29,23.387 50.488,24.631   "></polyline><polyline fill="none" stroke="#1A1A1A" stroke-width="0.3053" stroke-miterlimit="10" points="50.027,26.037 47.453,26.05     47.434,22.248 45.536,22.258   "></polyline><polyline fill="none" stroke="#1A1A1A" stroke-width="0.3053" stroke-miterlimit="10" points="47.725,13.412 47.744,16.922     51.749,19.592   "></polyline><polyline fill="none" stroke="#1A1A1A" stroke-width="0.3053" stroke-miterlimit="10" points="51.762,22.225 48.613,24.055     48.59,19.609 50.937,20.913   "></polyline><polyline fill="none" stroke="#1A1A1A" stroke-width="0.3053" stroke-miterlimit="10" points="47.425,20.668 47.413,18.211     45.512,17.636 45.49,13.424   "></polyline><polyline fill="none" stroke="#1A1A1A" stroke-width="0.3053" stroke-miterlimit="10" points="39.26,14.275 39.921,17.665     41.793,17.655 41.771,13.443   "></polyline><polyline fill="none" stroke="#1A1A1A" stroke-width="0.3053" stroke-miterlimit="10" points="43.321,13.435 43.351,19.051     41.801,19.059 44.674,19.044 44.684,20.946 46.478,20.937   "></polyline><polyline fill="none" stroke="#1A1A1A" stroke-width="0.3053" stroke-miterlimit="10" points="54.89,38.648 51.263,38.667     51.298,45.336 49.201,47.219 49.214,49.559 47.576,49.568   "></polyline><polyline fill="none" stroke="#1A1A1A" stroke-width="0.3053" stroke-miterlimit="10" points="49.157,38.678 49.179,42.89     47.885,44.067   "></polyline><polyline fill="none" stroke="#1A1A1A" stroke-width="0.3053" stroke-miterlimit="10" points="54.901,40.783 54.928,45.961     52.823,45.972 52.796,40.794   "></polyline><polyline fill="none" stroke="#1A1A1A" stroke-width="0.3053" stroke-miterlimit="10" points="51.253,48.028 53.535,48.016     53.454,54.92 51.289,54.931 51.261,49.548   "></polyline><polyline fill="none" stroke="#1A1A1A" stroke-width="0.3053" stroke-miterlimit="10" points="47.921,51.029 45.7,53.849     45.724,58.47 47.963,59.043 47.992,64.601   "></polyline><polyline fill="none" stroke="#1A1A1A" stroke-width="0.3053" stroke-miterlimit="10" points="45.756,64.613 45.734,60.342     43.559,59.066 43.529,53.275 40.74,56.975 40.795,67.505 43.106,67.493   "></polyline><polyline fill="none" stroke="#1A1A1A" stroke-width="0.3053" stroke-miterlimit="10" points="43.596,66.086 42.045,66.095     42.009,59.074 43.571,61.29 43.583,63.63   "></polyline><polyline fill="none" stroke="#1A1A1A" stroke-width="0.3053" stroke-miterlimit="10" points="49.224,51.49 47.604,54.95     47.617,57.466 49.95,57.453 49.242,54.941   "></polyline><polyline fill="none" stroke="#1A1A1A" stroke-width="0.3053" stroke-miterlimit="10" points="49.287,63.6 49.263,59.037     51.954,59.022 51.961,60.309   "></polyline><polyline fill="none" stroke="#1A1A1A" stroke-width="0.3053" stroke-miterlimit="10" points="50.386,61.254 50.386,62.964     53.964,62.991 56.22,69.297   "></polyline><polyline fill="none" stroke="#1A1A1A" stroke-width="0.3053" stroke-miterlimit="10" points="51.299,56.686 54.984,56.667     55.008,61.288 52.887,58.374   "></polyline><polyline fill="none" stroke="#1A1A1A" stroke-width="0.3053" stroke-miterlimit="10" points="54.874,35.548 54.853,31.511     53.01,31.521 52.995,28.595 57.519,26.466 57.506,24.097 55.985,24.017 55.945,16.47 54.174,13.378   "></polyline><polyline fill="none" stroke="#1A1A1A" stroke-width="0.3053" stroke-miterlimit="10" points="58.575,72.093 58.551,67.413     57.022,66.017 56.961,54.433 59.182,53.779   "></polyline><polyline fill="none" stroke="#1A1A1A" stroke-width="0.3053" stroke-miterlimit="10" points="56.951,52.444 56.934,49.168     59.157,49.157 59.174,52.433   "></polyline><polyline fill="none" stroke="#1A1A1A" stroke-width="0.3053" stroke-miterlimit="10" points="59.193,56.06 59.243,65.537     61.017,69.272 60.167,74.425   "></polyline><polyline fill="none" stroke="#1A1A1A" stroke-width="0.3053" stroke-miterlimit="10" points="87.491,30.112 78.716,30.217     77.186,28.469 68.06,28.517 66.417,27.531   "></polyline><polyline fill="none" stroke="#1A1A1A" stroke-width="0.3053" stroke-miterlimit="10" points="85.844,28.424 79.762,28.836     77.877,26.36 69.57,26.403 69.56,24.531 63.008,24.566 63.034,29.596 64.211,30.877   "></polyline><polyline fill="none" stroke="#1A1A1A" stroke-width="0.3053" stroke-miterlimit="10" points="83.844,26.329 79.866,26.349     80.575,27.633 82.564,27.623   "></polyline><line fill="none" stroke="#1A1A1A" stroke-width="0.3053" stroke-miterlimit="10" x1="72.017" y1="24.519" x2="81.845" y2="24.468"></line><polyline fill="none" stroke="#1A1A1A" stroke-width="0.3053" stroke-miterlimit="10" points="64.646,24.557 64.67,29.12     67.133,30.277 63.059,34.276 63.078,38.021   "></polyline><polyline fill="none" stroke="#1A1A1A" stroke-width="0.3053" stroke-miterlimit="10" points="53.783,28.224 56.839,30.916     56.863,35.537   "></polyline><polyline fill="none" stroke="#1A1A1A" stroke-width="0.3053" stroke-miterlimit="10" points="57.975,35.531 58.002,40.767     59.991,40.757 60.026,47.514 58.447,47.522 58.543,43.353   "></polyline><polyline fill="none" stroke="#1A1A1A" stroke-width="0.3053" stroke-miterlimit="10" points="56.747,13.365 59.878,18.965     59.98,34.016 58.397,32.429 58.375,28.201 56.825,28.209   "></polyline><polyline fill="none" stroke="#1A1A1A" stroke-width="0.3053" stroke-miterlimit="10" points="57.476,18.393 57.496,22.195     59.895,22.183   "></polyline><polyline fill="none" stroke="#1A1A1A" stroke-width="0.3053" stroke-miterlimit="10" points="61.525,31.849 61.571,40.749     69.059,40.71 72.672,37.971   "></polyline><polyline fill="none" stroke="#1A1A1A" stroke-width="0.3053" stroke-miterlimit="10" points="65.132,39.355 68.701,39.337     72.078,36.102 78.161,35.894 78.146,33.116 76.267,31.772 76.142,30.171 69.239,30.266   "></polyline><polyline fill="none" stroke="#1A1A1A" stroke-width="0.3053" stroke-miterlimit="10" points="67.843,31.816 69.02,33.163     71.619,32.36 77.207,32.444   "></polyline><line fill="none" stroke="#1A1A1A" stroke-width="0.3053" stroke-miterlimit="10" x1="64.23" y1="34.505" x2="78.152" y2="34.198"></line><polyline fill="none" stroke="#1A1A1A" stroke-width="0.3053" stroke-miterlimit="10" points="69.623,34.351 67.875,37.996     65.125,38.01 65.115,35.962 67.104,35.952   "></polyline><polyline fill="none" stroke="#1A1A1A" stroke-width="0.3053" stroke-miterlimit="10" points="80.901,22.775 76.103,22.8     73.399,20.211 76.441,20.196   "></polyline><polyline fill="none" stroke="#1A1A1A" stroke-width="0.3053" stroke-miterlimit="10" points="73.883,23.28 71.117,20.223     62.988,20.587 62.966,16.434 64.128,14.848   "></polyline><path fill="none" stroke="#1A1A1A" stroke-width="0.3053" stroke-miterlimit="10" d="M61.433,14.16    c0.002,0.351,0.064,12.285,0.064,12.285"></path><polyline fill="none" stroke="#1A1A1A" stroke-width="0.3053" stroke-miterlimit="10" points="61.476,22.451 69.665,22.249     70.493,23.941   "></polyline><polyline fill="none" stroke="#1A1A1A" stroke-width="0.3053" stroke-miterlimit="10" points="72.57,18.314 65.027,19.085     64.139,16.954 65.949,16.418   "></polyline><path fill="none" stroke="#1A1A1A" stroke-width="0.3053" stroke-miterlimit="10" d="M79.894,31.753    c-0.001-0.138,8.19-0.043,8.19-0.043l0.015,2.962l-8.187,0.745l-0.012-2.311l5.384,0.294"></path><polyline fill="none" stroke="#1A1A1A" stroke-width="0.3053" stroke-miterlimit="10" points="90.322,34.369 90.355,40.803     92.237,42.666 92.287,52.26   "></polyline><line fill="none" stroke="#1A1A1A" stroke-width="0.3053" stroke-miterlimit="10" x1="90.433" y1="55.897" x2="90.371" y2="43.904"></line><polyline fill="none" stroke="#1A1A1A" stroke-width="0.3053" stroke-miterlimit="10" points="90.392,47.824 88.168,47.835     88.148,43.916 83.351,43.882   "></polyline><polyline fill="none" stroke="#1A1A1A" stroke-width="0.3053" stroke-miterlimit="10" points="88.168,47.835 88.192,52.281     83.98,52.303 83.993,54.878   "></polyline><polyline fill="none" stroke="#1A1A1A" stroke-width="0.3053" stroke-miterlimit="10" points="86.826,37.195 84.486,37.207     84.51,41.77 77.256,41.808 76.097,43.979 76.131,50.589 82.802,50.847   "></polyline><path fill="none" stroke="#1A1A1A" stroke-width="0.3053" stroke-miterlimit="10" d="M79.952,42.73    c0.12,0.584,0.027,5.148,0.027,5.148l1.529,1.513l6.669-0.035"></path><polyline fill="none" stroke="#1A1A1A" stroke-width="0.3053" stroke-miterlimit="10" points="79.922,45.187 77.741,45.199     77.761,49.06   "></polyline><line fill="none" stroke="#1A1A1A" stroke-width="0.3053" stroke-miterlimit="10" x1="79.991" y1="47.117" x2="84.771" y2="47.092"></line><line fill="none" stroke="#1A1A1A" stroke-width="0.3053" stroke-miterlimit="10" x1="86.018" y1="39.247" x2="86.042" y2="44.014"></line><line fill="none" stroke="#1A1A1A" stroke-width="0.3053" stroke-miterlimit="10" x1="86.03" y1="41.631" x2="88.605" y2="41.749"></line><polyline fill="none" stroke="#1A1A1A" stroke-width="0.3053" stroke-miterlimit="10" points="83.319,37.915 80.992,40.326     74.498,40.36 74.565,53.055 82.412,53.014   "></polyline><polyline fill="none" stroke="#1A1A1A" stroke-width="0.3053" stroke-miterlimit="10" points="83.313,36.628 75.36,37.255     69.767,41.847   "></polyline><line fill="none" stroke="#1A1A1A" stroke-width="0.3053" stroke-miterlimit="10" x1="73.496" y1="38.785" x2="79.889" y2="38.752"></line><polyline fill="none" stroke="#1A1A1A" stroke-width="0.3053" stroke-miterlimit="10" points="61.933,42.824 67.9,42.793     69.782,44.772 73.527,44.753 73.549,49.082   "></polyline><polyline fill="none" stroke="#1A1A1A" stroke-width="0.3053" stroke-miterlimit="10" points="68.498,45.364 61.596,45.575     61.588,43.996   "></polyline><polyline fill="none" stroke="#1A1A1A" stroke-width="0.3053" stroke-miterlimit="10" points="61.956,47.211 71.696,47.16     71.718,51.373 73.561,51.363   "></polyline><polyline fill="none" stroke="#1A1A1A" stroke-width="0.3053" stroke-miterlimit="10" points="60.913,49.148 69.805,49.101     69.822,52.377 60.93,52.423 60.922,50.961 66.537,50.639   "></polyline><polyline fill="none" stroke="#1A1A1A" stroke-width="0.3053" stroke-miterlimit="10" points="60.937,53.769 60.993,64.534     63.198,66.716   "></polyline><polyline fill="none" stroke="#1A1A1A" stroke-width="0.3053" stroke-miterlimit="10" points="61.71,67.397 63.247,70.431     63.259,72.771 76.246,72.703   "></polyline><polyline fill="none" stroke="#1A1A1A" stroke-width="0.3053" stroke-miterlimit="10" points="76.861,71.179 77.147,65.912     86.152,65.105   "></polyline><polyline fill="none" stroke="#1A1A1A" stroke-width="0.3053" stroke-miterlimit="10" points="84.175,67.28 78.324,67.31     78.338,70.001 80.058,71.162   "></polyline><line fill="none" stroke="#1A1A1A" stroke-width="0.3053" stroke-miterlimit="10" x1="80.047" y1="69.173" x2="82.496" y2="69.16"></line><polyline fill="none" stroke="#1A1A1A" stroke-width="0.3053" stroke-miterlimit="10" points="89.744,58.241 85.992,56.739     85.975,53.639   "></polyline><line fill="none" stroke="#1A1A1A" stroke-width="0.3053" stroke-miterlimit="10" x1="86.101" y1="55.335" x2="88.208" y2="55.324"></line><polyline fill="none" stroke="#1A1A1A" stroke-width="0.3053" stroke-miterlimit="10" points="88.711,62.224 86.95,61.064     86.939,58.811 81.073,55.975 81.065,54.308   "></polyline><polyline fill="none" stroke="#1A1A1A" stroke-width="0.3053" stroke-miterlimit="10" points="71.727,53.07 72.178,55.407     78.994,55.372 79.012,58.853   "></polyline><polyline fill="none" stroke="#1A1A1A" stroke-width="0.3053" stroke-miterlimit="10" points="68.897,54.371 68.912,57.355     76.789,57.313   "></polyline><polyline fill="none" stroke="#1A1A1A" stroke-width="0.3053" stroke-miterlimit="10" points="67.197,53.737 63.13,53.758     62.737,62.359 64.394,65.978   "></polyline><polyline fill="none" stroke="#1A1A1A" stroke-width="0.3053" stroke-miterlimit="10" points="65.035,71.24 72.728,71.2     75.439,69.256 75.409,63.464 80.076,63.44   "></polyline><polyline fill="none" stroke="#1A1A1A" stroke-width="0.3053" stroke-miterlimit="10" points="82.466,63.427 86.963,63.404     84.143,61.137 84.133,59.323 81.084,57.993   "></polyline><polyline fill="none" stroke="#1A1A1A" stroke-width="0.3053" stroke-miterlimit="10" points="82.034,60.709 77.354,60.733     76.797,58.893 71.319,58.922   "></polyline><polyline fill="none" stroke="#1A1A1A" stroke-width="0.3053" stroke-miterlimit="10" points="76.192,62.289 73.618,62.303     73.651,68.622   "></polyline><line fill="none" stroke="#1A1A1A" stroke-width="0.3053" stroke-miterlimit="10" x1="65.019" y1="68.228" x2="73.641" y2="66.661"></line><polyline fill="none" stroke="#1A1A1A" stroke-width="0.3053" stroke-miterlimit="10" points="65.395,56.028 65.417,60.225     74.894,60.176   "></polyline><line fill="none" stroke="#1A1A1A" stroke-width="0.3053" stroke-miterlimit="10" x1="72.203" y1="60.234" x2="72.229" y2="65.177"></line><line fill="none" stroke="#1A1A1A" stroke-width="0.3053" stroke-miterlimit="10" x1="72.22" y1="63.481" x2="67.264" y2="66.694"></line><line fill="none" stroke="#1A1A1A" stroke-width="0.3053" stroke-miterlimit="10" x1="64.375" y1="62.351" x2="72.214" y2="62.31"></line><polyline fill="none" stroke="#1A1A1A" stroke-width="0.3053" stroke-miterlimit="10" points="66.189,62.458 66.203,65.106     67.92,63.503   "></polyline><polyline fill="none" stroke="#1A1A1A" stroke-width="0.3053" stroke-miterlimit="10" points="71.361,67.076 71.377,70.037     66.638,70.062 68.678,68.648   "></polyline><polyline fill="none" stroke="#1A1A1A" stroke-width="0.3053" stroke-miterlimit="10" points="61.747,74.417 65.198,74.399     65.228,80.132   "></polyline><polyline fill="none" stroke="#1A1A1A" stroke-width="0.3053" stroke-miterlimit="10" points="66.704,82.815 66.671,76.38     68.656,75.668 68.641,72.743   "></polyline><polyline fill="none" stroke="#1A1A1A" stroke-width="0.3053" stroke-miterlimit="10" points="69.782,72.737 69.943,75.544     72.292,77.228 72.357,89.806   "></polyline><polyline fill="none" stroke="#1A1A1A" stroke-width="0.3053" stroke-miterlimit="10" points="72.592,74.36 74.687,76.689     74.742,87.22 73.701,87.225   "></polyline><polyline fill="none" stroke="#1A1A1A" stroke-width="0.3053" stroke-miterlimit="10" points="70.254,79.17 70.286,85.371     69.202,85.371 68.098,80.819   "></polyline><line fill="none" stroke="#1A1A1A" stroke-width="0.3053" stroke-miterlimit="10" x1="75.465" y1="74.345" x2="77.191" y2="74.336"></line></g><g><ellipse transform="matrix(1 -0.0052 0.0052 1 -0.1435 0.0909)" cx="17.488" cy="27.764" rx="0.675" ry="0.675"></ellipse><ellipse transform="matrix(1 -0.0051 0.0051 1 -0.2137 0.1176)" cx="22.803" cy="41.712" rx="0.675" ry="0.675"></ellipse><ellipse transform="matrix(1 -0.0052 0.0052 1 -0.2175 0.0999)" cx="18.946" cy="41.527" rx="0.675" ry="0.675"></ellipse><ellipse transform="matrix(1 -0.0052 0.0052 1 -0.2034 0.1018)" cx="19.31" cy="38.834" rx="0.675" ry="0.675"></ellipse><ellipse transform="matrix(1 -0.0052 0.0052 1 -0.1877 0.088)" cx="16.857" cy="36.214" rx="0.675" ry="0.675"></ellipse><ellipse transform="matrix(1 -0.0052 0.0052 1 -0.1896 0.0982)" cx="18.621" cy="36.205" rx="0.675" ry="0.675"></ellipse><ellipse transform="matrix(1 -0.0052 0.0052 1 -0.1583 0.0755)" cx="14.469" cy="30.552" rx="0.675" ry="0.675"></ellipse><ellipse transform="matrix(1 -0.0052 0.0052 1 -0.1693 0.0622)" cx="11.906" cy="32.671" rx="0.675" ry="0.675"></ellipse><ellipse transform="matrix(1 -0.0052 0.0052 1 -0.1789 0.057)" cx="10.775" cy="34.142" rx="0.675" ry="0.675"></ellipse><ellipse transform="matrix(1 -0.0052 0.0052 1 -0.2111 0.0663)" cx="12.531" cy="40.273" rx="0.675" ry="0.675"></ellipse><ellipse transform="matrix(1 -0.0052 0.0052 1 -0.2257 0.1078)" cx="20.443" cy="43.074" rx="0.675" ry="0.675"></ellipse><ellipse transform="matrix(1 -0.0052 0.0052 1 -0.2424 0.1095)" cx="20.989" cy="46.782" rx="0.675" ry="0.675"></ellipse><ellipse transform="matrix(1 -0.0052 0.0052 1 -0.2498 0.0895)" cx="17.135" cy="48.206" rx="0.675" ry="0.675"></ellipse><ellipse transform="matrix(1 -0.0053 0.0053 1 -0.2761 0.0917)" cx="17.155" cy="52.125" rx="0.675" ry="0.675"></ellipse><ellipse transform="matrix(1 -0.0053 0.0053 1 -0.3218 0.1209)" cx="22.642" cy="60.758" rx="0.675" ry="0.675"></ellipse><ellipse transform="matrix(1 -0.0053 0.0053 1 -0.3102 0.1335)" cx="25.029" cy="58.578" rx="0.675" ry="0.675"></ellipse><ellipse transform="matrix(1 -0.0053 0.0053 1 -0.2825 0.1451)" cx="27.224" cy="53.36" rx="0.675" ry="0.675"></ellipse><ellipse transform="matrix(1 -0.0053 0.0053 1 -0.2612 0.1326)" cx="24.89" cy="49.336" rx="0.675" ry="0.675"></ellipse><ellipse transform="matrix(1 -0.0051 0.0051 1 -0.2807 0.0881)" cx="17.172" cy="55.226" rx="0.675" ry="0.675"></ellipse><ellipse transform="matrix(1 -0.0051 0.0051 1 -0.2897 0.0719)" cx="14.022" cy="57.114" rx="0.675" ry="0.675"></ellipse><ellipse transform="matrix(1 -0.0053 0.0053 1 -0.2831 0.0618)" cx="11.517" cy="53.442" rx="0.675" ry="0.675"></ellipse><ellipse transform="matrix(1 -0.0053 0.0053 1 -0.274 0.042)" cx="7.793" cy="51.706" rx="0.675" ry="0.675"></ellipse><ellipse transform="matrix(1 -0.0052 0.0052 1 -0.2528 0.0666)" cx="12.572" cy="48.23" rx="0.675" ry="0.675"></ellipse><ellipse transform="matrix(1 -0.0052 0.0052 1 -0.2513 0.041)" cx="7.776" cy="48.462" rx="0.675" ry="0.675"></ellipse><ellipse transform="matrix(1 -0.0052 0.0052 1 -0.2399 0.0397)" cx="7.53" cy="46.266" rx="0.675" ry="0.675"></ellipse><ellipse transform="matrix(1 -0.0052 0.0052 1 -0.2449 0.1346)" cx="25.552" cy="46.758" rx="0.675" ry="0.675"></ellipse><ellipse transform="matrix(1 -0.0052 0.0052 1 -0.2252 0.1572)" cx="29.862" cy="43.025" rx="0.675" ry="0.675"></ellipse><ellipse transform="matrix(1 -0.0052 0.0052 1 -0.2151 0.1768)" cx="33.596" cy="41.1" rx="0.675" ry="0.675"></ellipse><ellipse transform="matrix(1 -0.0052 0.0052 1 -0.2029 0.1669)" cx="31.712" cy="38.769" rx="0.675" ry="0.675"></ellipse><ellipse transform="matrix(1 -0.0052 0.0052 1 -0.176 0.1819)" cx="34.963" cy="34.016" rx="0.675" ry="0.675"></ellipse><ellipse transform="matrix(1 -0.0052 0.0052 1 -0.1413 0.1676)" cx="31.885" cy="27.013" rx="0.675" ry="0.675"></ellipse><ellipse transform="matrix(1 -0.0052 0.0052 1 -0.125 0.1972)" cx="37.954" cy="24.199" rx="0.675" ry="0.675"></ellipse><ellipse transform="matrix(1 -0.0052 0.0052 1 -0.1087 0.1336)" cx="25.417" cy="20.783" rx="0.675" ry="0.675"></ellipse><ellipse transform="matrix(1 -0.0052 0.0052 1 -0.1188 0.1177)" cx="22.62" cy="22.962" rx="0.675" ry="0.675"></ellipse><ellipse transform="matrix(1 -0.0052 0.0052 1 -0.1378 0.1324)" cx="25.447" cy="26.633" rx="0.675" ry="0.675"></ellipse><ellipse transform="matrix(1 -0.0052 0.0052 1 -0.1913 0.1237)" cx="23.746" cy="36.939" rx="0.675" ry="0.675"></ellipse><ellipse transform="matrix(1 -0.0052 0.0052 1 -0.1324 0.1177)" cx="22.634" cy="25.595" rx="0.675" ry="0.675"></ellipse><ellipse transform="matrix(1 -0.0052 0.0052 1 -0.1122 0.1814)" cx="34.899" cy="21.714" rx="0.675" ry="0.675"></ellipse><ellipse transform="matrix(1 -0.0052 0.0052 1 -0.1807 0.2053)" cx="39.473" cy="34.926" rx="0.675" ry="0.675"></ellipse><ellipse transform="matrix(1 -0.0052 0.0052 1 -0.2044 0.2021)" cx="38.853" cy="39.493" rx="0.675" ry="0.675"></ellipse><ellipse transform="matrix(1 -0.0052 0.0052 1 -0.2179 0.1946)" cx="36.992" cy="41.638" rx="0.675" ry="0.675"></ellipse><ellipse transform="matrix(1 -0.0052 0.0052 1 -0.2425 0.1567)" cx="29.758" cy="46.326" rx="0.675" ry="0.675"></ellipse><ellipse transform="matrix(1 -0.0052 0.0052 1 -0.2571 0.1825)" cx="35.044" cy="49.634" rx="0.675" ry="0.675"></ellipse><ellipse transform="matrix(1 -0.0051 0.0051 1 -0.2607 0.1925)" cx="37.718" cy="51.343" rx="0.675" ry="0.675"></ellipse><ellipse transform="matrix(1 -0.0051 0.0051 1 -0.2698 0.1715)" cx="33.659" cy="53.268" rx="0.675" ry="0.675"></ellipse><ellipse transform="matrix(1 -0.0053 0.0053 1 -0.2766 0.1705)" cx="32.016" cy="52.255" rx="0.675" ry="0.675"></ellipse><ellipse transform="matrix(1 -0.0053 0.0053 1 -0.331 0.1535)" cx="28.853" cy="62.654" rx="0.675" ry="0.675"></ellipse><ellipse transform="matrix(1 -0.0051 0.0051 1 -0.3008 0.1592)" cx="31.143" cy="59.222" rx="0.675" ry="0.675"></ellipse><ellipse transform="matrix(1 -0.0053 0.0053 1 -0.3249 0.1623)" cx="30.455" cy="61.358" rx="0.675" ry="0.675"></ellipse><ellipse transform="matrix(1 -0.0051 0.0051 1 -0.3243 0.1564)" cx="30.646" cy="63.968" rx="0.675" ry="0.675"></ellipse><ellipse transform="matrix(1 -0.0051 0.0051 1 -0.2888 0.1823)" cx="35.785" cy="57.001" rx="0.675" ry="0.675"></ellipse><ellipse transform="matrix(1 -0.0053 0.0053 1 -0.3475 0.2033)" cx="38.17" cy="65.647" rx="0.675" ry="0.675"></ellipse><ellipse transform="matrix(1 -0.0053 0.0053 1 -0.3381 0.2325)" cx="43.69" cy="63.9" rx="0.675" ry="0.675"></ellipse><ellipse transform="matrix(1 -0.0053 0.0053 1 -0.3576 0.231)" cx="43.389" cy="67.58" rx="0.675" ry="0.675"></ellipse><ellipse transform="matrix(1 -0.0051 0.0051 1 -0.3311 0.2341)" cx="45.865" cy="65.212" rx="0.675" ry="0.675"></ellipse><ellipse transform="matrix(1 -0.0051 0.0051 1 -0.2584 0.2444)" cx="48.027" cy="51.029" rx="0.675" ry="0.675"></ellipse><ellipse transform="matrix(1 -0.0052 0.0052 1 -0.2568 0.2165)" cx="41.597" cy="49.599" rx="0.675" ry="0.675"></ellipse><ellipse transform="matrix(1 -0.0052 0.0052 1 -0.2378 0.2479)" cx="47.662" cy="45.968" rx="0.675" ry="0.675"></ellipse><ellipse transform="matrix(1 -0.0052 0.0052 1 -0.2005 0.2561)" cx="49.263" cy="38.763" rx="0.675" ry="0.675"></ellipse><ellipse transform="matrix(1 -0.0052 0.0052 1 -0.1966 0.2412)" cx="46.398" cy="38.018" rx="0.675" ry="0.675"></ellipse><ellipse transform="matrix(1 -0.0052 0.0052 1 -0.2165 0.2344)" cx="45.068" cy="41.845" rx="0.675" ry="0.675"></ellipse><ellipse transform="matrix(1 -0.0052 0.0052 1 -0.1738 0.2322)" cx="44.673" cy="33.612" rx="0.675" ry="0.675"></ellipse><ellipse transform="matrix(1 -0.0052 0.0052 1 -0.145 0.2633)" cx="50.141" cy="27.792" rx="0.675" ry="0.675"></ellipse><ellipse transform="matrix(1 -0.0052 0.0052 1 -0.1649 0.2445)" cx="46.534" cy="31.555" rx="0.675" ry="0.675"></ellipse><ellipse transform="matrix(1 -0.0052 0.0052 1 -0.1994 0.2208)" cx="42.005" cy="38.131" rx="0.675" ry="0.675"></ellipse><ellipse transform="matrix(1 -0.0052 0.0052 1 -0.1572 0.2084)" cx="40.093" cy="30.418" rx="0.675" ry="0.675"></ellipse><ellipse transform="matrix(1 -0.0052 0.0052 1 -0.1347 0.2234)" cx="42.995" cy="26.074" rx="0.675" ry="0.675"></ellipse><ellipse transform="matrix(1 -0.0051 0.0051 1 -0.0796 0.1757)" cx="34.192" cy="15.589" rx="0.675" ry="0.675"></ellipse><ellipse transform="matrix(1 -0.0052 0.0052 1 -0.0692 0.2174)" cx="41.877" cy="13.443" rx="0.675" ry="0.675"></ellipse><ellipse transform="matrix(1 -0.0052 0.0052 1 -0.0698 0.2393)" cx="45.595" cy="13.424" rx="0.675" ry="0.675"></ellipse><ellipse transform="matrix(1 -0.0052 0.0052 1 -0.0688 0.2625)" cx="50.551" cy="13.398" rx="0.675" ry="0.675"></ellipse><ellipse transform="matrix(1 -0.0052 0.0052 1 -0.0947 0.2991)" cx="57.582" cy="18.393" rx="0.675" ry="0.675"></ellipse><ellipse transform="matrix(1 -0.0052 0.0052 1 -0.0726 0.3194)" cx="61.538" cy="14.16" rx="0.675" ry="0.675"></ellipse><ellipse transform="matrix(1 -0.0051 0.0051 1 -0.1349 0.3164)" cx="61.602" cy="26.445" rx="0.675" ry="0.675"></ellipse><ellipse transform="matrix(1 -0.0052 0.0052 1 -0.1468 0.2958)" cx="56.931" cy="28.432" rx="0.675" ry="0.675"></ellipse><ellipse transform="matrix(1 -0.0052 0.0052 1 -0.1678 0.3237)" cx="61.631" cy="32.151" rx="0.675" ry="0.675"></ellipse><ellipse transform="matrix(1 -0.0052 0.0052 1 -0.2247 0.3037)" cx="58.561" cy="43.551" rx="0.675" ry="0.675"></ellipse><ellipse transform="matrix(1 -0.0052 0.0052 1 -0.2307 0.3242)" cx="61.694" cy="44.142" rx="0.675" ry="0.675"></ellipse><ellipse transform="matrix(1 -0.0051 0.0051 1 -0.2668 0.291)" cx="57.057" cy="52.593" rx="0.675" ry="0.675"></ellipse><ellipse transform="matrix(1 -0.0053 0.0053 1 -0.2772 0.3142)" cx="59.283" cy="52.581" rx="0.675" ry="0.675"></ellipse><ellipse transform="matrix(1 -0.0051 0.0051 1 -0.2496 0.3104)" cx="61.019" cy="49.323" rx="0.675" ry="0.675"></ellipse><ellipse transform="matrix(1 -0.0052 0.0052 1 -0.2445 0.3228)" cx="62.105" cy="47.297" rx="0.675" ry="0.675"></ellipse><ellipse transform="matrix(1 -0.0052 0.0052 1 -0.2028 0.3384)" cx="65.12" cy="39.271" rx="0.675" ry="0.675"></ellipse><ellipse transform="matrix(1 -0.0052 0.0052 1 -0.1861 0.3483)" cx="67.02" cy="36.038" rx="0.675" ry="0.675"></ellipse><ellipse transform="matrix(1 -0.0052 0.0052 1 -0.1659 0.3564)" cx="67.861" cy="31.816" rx="0.675" ry="0.675"></ellipse><ellipse transform="matrix(1 -0.0051 0.0051 1 -0.1219 0.3626)" cx="70.598" cy="23.941" rx="0.675" ry="0.675"></ellipse><ellipse transform="matrix(1 -0.0051 0.0051 1 -0.093 0.3726)" cx="72.558" cy="18.315" rx="0.675" ry="0.675"></ellipse><ellipse transform="matrix(1 -0.0052 0.0052 1 -0.0835 0.3477)" cx="66.24" cy="16.098" rx="0.675" ry="0.675"></ellipse><ellipse transform="matrix(1 -0.0052 0.0052 1 -0.1434 0.3493)" cx="66.522" cy="27.508" rx="0.675" ry="0.675"></ellipse><ellipse transform="matrix(1 -0.0051 0.0051 1 -0.1581 0.3304)" cx="64.317" cy="30.967" rx="0.675" ry="0.675"></ellipse><ellipse transform="matrix(1 -0.0052 0.0052 1 -0.1578 0.3635)" cx="69.242" cy="30.267" rx="0.675" ry="0.675"></ellipse><ellipse transform="matrix(1 -0.0052 0.0052 1 -0.1416 0.4291)" cx="82.642" cy="27.506" rx="0.675" ry="0.675"></ellipse><ellipse transform="matrix(1 -0.0052 0.0052 1 -0.1183 0.4249)" cx="81.123" cy="22.824" rx="0.675" ry="0.675"></ellipse><ellipse transform="matrix(1 -0.0052 0.0052 1 -0.1214 0.3859)" cx="73.52" cy="23.339" rx="0.675" ry="0.675"></ellipse><ellipse transform="matrix(1 -0.0052 0.0052 1 -0.105 0.4017)" cx="76.546" cy="20.225" rx="0.675" ry="0.675"></ellipse><ellipse transform="matrix(1 -0.0051 0.0051 1 -0.1609 0.4108)" cx="79.957" cy="31.561" rx="0.675" ry="0.675"></ellipse><ellipse transform="matrix(1 -0.0052 0.0052 1 -0.1721 0.4439)" cx="85.481" cy="33.4" rx="0.675" ry="0.675"></ellipse><ellipse transform="matrix(1 -0.0052 0.0052 1 -0.189 0.4332)" cx="83.418" cy="36.645" rx="0.675" ry="0.675"></ellipse><ellipse transform="matrix(1 -0.0051 0.0051 1 -0.2597 0.3745)" cx="73.667" cy="51.363" rx="0.675" ry="0.675"></ellipse><ellipse transform="matrix(1 -0.0051 0.0051 1 -0.2691 0.3665)" cx="72.065" cy="53.19" rx="0.675" ry="0.675"></ellipse><ellipse transform="matrix(1 -0.0051 0.0051 1 -0.2562 0.339)" cx="66.642" cy="50.639" rx="0.675" ry="0.675"></ellipse><ellipse transform="matrix(1 -0.0052 0.0052 1 -0.2353 0.355)" cx="68.313" cy="45.541" rx="0.675" ry="0.675"></ellipse><ellipse transform="matrix(1 -0.0052 0.0052 1 -0.22 0.3662)" cx="69.728" cy="42.143" rx="0.675" ry="0.675"></ellipse><ellipse transform="matrix(1 -0.0052 0.0052 1 -0.2022 0.4201)" cx="79.994" cy="38.752" rx="0.675" ry="0.675"></ellipse><ellipse transform="matrix(1 -0.0052 0.0052 1 -0.2544 0.4046)" cx="77.868" cy="49.235" rx="0.675" ry="0.675"></ellipse><ellipse transform="matrix(1 -0.0052 0.0052 1 -0.2458 0.4461)" cx="84.935" cy="47.092" rx="0.675" ry="0.675"></ellipse><ellipse transform="matrix(1 -0.0052 0.0052 1 -0.2183 0.4671)" cx="88.918" cy="41.838" rx="0.675" ry="0.675"></ellipse><ellipse transform="matrix(1 -0.0052 0.0052 1 -0.1796 0.4748)" cx="90.427" cy="34.481" rx="0.675" ry="0.675"></ellipse><ellipse transform="matrix(1 -0.0053 0.0053 1 -0.2943 0.4808)" cx="90.538" cy="55.751" rx="0.675" ry="0.675"></ellipse><ellipse transform="matrix(1 -0.0053 0.0053 1 -0.3063 0.429)" cx="80.769" cy="57.996" rx="0.675" ry="0.675"></ellipse><ellipse transform="matrix(1 -0.0053 0.0053 1 -0.2888 0.4311)" cx="81.172" cy="54.686" rx="0.675" ry="0.675"></ellipse><ellipse transform="matrix(1 -0.0053 0.0053 1 -0.3113 0.3793)" cx="71.419" cy="58.922" rx="0.675" ry="0.675"></ellipse><ellipse transform="matrix(1 -0.0051 0.0051 1 -0.2842 0.3331)" cx="65.501" cy="56.171" rx="0.675" ry="0.675"></ellipse><ellipse transform="matrix(1 -0.0053 0.0053 1 -0.335 0.3613)" cx="68.113" cy="63.502" rx="0.675" ry="0.675"></ellipse><ellipse transform="matrix(1 -0.0051 0.0051 1 -0.334 0.3282)" cx="64.499" cy="65.978" rx="0.675" ry="0.675"></ellipse><ellipse transform="matrix(1 -0.0051 0.0051 1 -0.2845 0.3024)" cx="59.301" cy="56.089" rx="0.675" ry="0.675"></ellipse><ellipse transform="matrix(1 -0.0053 0.0053 1 -0.2866 0.3644)" cx="68.741" cy="54.373" rx="0.675" ry="0.675"></ellipse><ellipse transform="matrix(1 -0.0053 0.0053 1 -0.3214 0.4363)" cx="82.14" cy="60.858" rx="0.675" ry="0.675"></ellipse><ellipse transform="matrix(1 -0.0051 0.0051 1 -0.3209 0.4078)" cx="80.182" cy="63.439" rx="0.675" ry="0.675"></ellipse><ellipse transform="matrix(1 -0.0053 0.0053 1 -0.3619 0.3911)" cx="73.756" cy="68.622" rx="0.675" ry="0.675"></ellipse><ellipse transform="matrix(1 -0.0053 0.0053 1 -0.3444 0.4583)" cx="86.258" cy="65.19" rx="0.675" ry="0.675"></ellipse><ellipse transform="matrix(1 -0.0053 0.0053 1 -0.3279 0.4707)" cx="88.816" cy="62.224" rx="0.675" ry="0.675"></ellipse><ellipse transform="matrix(1 -0.0051 0.0051 1 -0.2797 0.4479)" cx="88.105" cy="55.325" rx="0.675" ry="0.675"></ellipse><ellipse transform="matrix(1 -0.0051 0.0051 1 -0.264 0.4695)" cx="92.392" cy="52.26" rx="0.675" ry="0.675"></ellipse><ellipse transform="matrix(1 -0.0051 0.0051 1 -0.2785 0.4284)" cx="84.099" cy="54.968" rx="0.675" ry="0.675"></ellipse><ellipse transform="matrix(1 -0.0053 0.0053 1 -0.2682 0.4388)" cx="82.817" cy="50.921" rx="0.675" ry="0.675"></ellipse><ellipse transform="matrix(1 -0.0053 0.0053 1 -0.3022 0.4093)" cx="77.207" cy="57.312" rx="0.675" ry="0.675"></ellipse><ellipse transform="matrix(1 -0.0051 0.0051 1 -0.3607 0.3303)" cx="64.904" cy="71.242" rx="0.675" ry="0.675"></ellipse><ellipse transform="matrix(1 -0.0051 0.0051 1 -0.3483 0.3504)" cx="68.727" cy="68.648" rx="0.675" ry="0.675"></ellipse><ellipse transform="matrix(1 -0.0053 0.0053 1 -0.3461 0.3845)" cx="72.342" cy="65.469" rx="0.675" ry="0.675"></ellipse><ellipse transform="matrix(1 -0.0051 0.0051 1 -0.3424 0.3146)" cx="61.816" cy="67.622" rx="0.675" ry="0.675"></ellipse><ellipse transform="matrix(1 -0.0053 0.0053 1 -0.3928 0.3282)" cx="61.852" cy="74.417" rx="0.675" ry="0.675"></ellipse><ellipse transform="matrix(1 -0.0051 0.0051 1 -0.4103 0.348)" cx="68.203" cy="80.819" rx="0.675" ry="0.675"></ellipse><ellipse transform="matrix(1 -0.0051 0.0051 1 -0.4549 0.3689)" cx="72.463" cy="89.806" rx="0.675" ry="0.675"></ellipse><ellipse transform="matrix(1 -0.0051 0.0051 1 -0.4417 0.3757)" cx="73.806" cy="87.225" rx="0.675" ry="0.675"></ellipse><ellipse transform="matrix(1 -0.0051 0.0051 1 -0.3651 0.2989)" cx="58.709" cy="72.093" rx="0.675" ry="0.675"></ellipse><ellipse transform="matrix(1 -0.0051 0.0051 1 -0.2739 0.3105)" cx="61.044" cy="54.116" rx="0.675" ry="0.675"></ellipse><ellipse transform="matrix(1 -0.0051 0.0051 1 -0.249 0.3742)" cx="73.609" cy="49.257" rx="0.675" ry="0.675"></ellipse><ellipse transform="matrix(1 -0.0052 0.0052 1 -0.2233 0.4158)" cx="80.017" cy="43.242" rx="0.675" ry="0.675"></ellipse><ellipse transform="matrix(1 -0.0052 0.0052 1 -0.2293 0.4378)" cx="83.366" cy="43.941" rx="0.675" ry="0.675"></ellipse><ellipse transform="matrix(1 -0.0052 0.0052 1 -0.2287 0.4752)" cx="90.476" cy="43.846" rx="0.675" ry="0.675"></ellipse><ellipse transform="matrix(1 -0.0052 0.0052 1 -0.1939 0.4578)" cx="87.4" cy="37.299" rx="0.675" ry="0.675"></ellipse><ellipse transform="matrix(1 -0.0052 0.0052 1 -0.1571 0.4599)" cx="87.597" cy="30.171" rx="0.675" ry="0.675"></ellipse><ellipse transform="matrix(1 -0.0051 0.0051 1 -0.1934 0.3743)" cx="72.855" cy="37.88" rx="0.675" ry="0.675"></ellipse><ellipse transform="matrix(1 -0.0052 0.0052 1 -0.1835 0.3017)" cx="58.08" cy="35.531" rx="0.675" ry="0.675"></ellipse><ellipse transform="matrix(1 -0.0053 0.0053 1 -0.3417 0.2558)" cx="48.097" cy="64.601" rx="0.675" ry="0.675"></ellipse><ellipse transform="matrix(1 -0.0051 0.0051 1 -0.2734 0.1987)" cx="38.928" cy="53.852" rx="0.675" ry="0.675"></ellipse><ellipse transform="matrix(1 -0.0052 0.0052 1 -0.1795 0.1569)" cx="29.817" cy="34.301" rx="0.675" ry="0.675"></ellipse><ellipse transform="matrix(1 -0.0052 0.0052 1 -0.2448 0.1203)" cx="22.829" cy="46.74" rx="0.675" ry="0.675"></ellipse><ellipse transform="matrix(1 -0.0052 0.0052 1 -0.158 0.1124)" cx="21.58" cy="30.515" rx="0.675" ry="0.675"></ellipse><ellipse transform="matrix(1 -0.0052 0.0052 1 -0.2175 0.0411)" cx="7.74" cy="41.585" rx="0.675" ry="0.675"></ellipse><ellipse transform="matrix(1 -0.0053 0.0053 1 -0.2825 0.0815)" cx="15.231" cy="53.337" rx="0.675" ry="0.675"></ellipse><ellipse transform="matrix(1 -0.0052 0.0052 1 -0.0694 0.2953)" cx="56.853" cy="13.509" rx="0.675" ry="0.675"></ellipse><ellipse transform="matrix(1 -0.0052 0.0052 1 -0.0983 0.2177)" cx="41.906" cy="19.059" rx="0.675" ry="0.675"></ellipse><ellipse transform="matrix(1 -0.0052 0.0052 1 -0.1014 0.2693)" cx="51.854" cy="19.678" rx="0.675" ry="0.675"></ellipse><ellipse transform="matrix(1 -0.0052 0.0052 1 -0.1783 0.3342)" cx="64.336" cy="34.538" rx="0.675" ry="0.675"></ellipse><ellipse transform="matrix(1 -0.0051 0.0051 1 -0.296 0.4588)" cx="90.243" cy="58.548" rx="0.675" ry="0.675"></ellipse><ellipse transform="matrix(1 -0.0053 0.0053 1 -0.3567 0.4471)" cx="84.164" cy="67.506" rx="0.675" ry="0.675"></ellipse><ellipse transform="matrix(1 -0.0051 0.0051 1 -0.3681 0.3874)" cx="76.144" cy="72.704" rx="0.675" ry="0.675"></ellipse><ellipse transform="matrix(1 -0.0051 0.0051 1 -0.3156 0.3281)" cx="64.48" cy="62.351" rx="0.675" ry="0.675"></ellipse><ellipse transform="matrix(1 -0.0051 0.0051 1 -0.3151 0.3893)" cx="76.558" cy="62.288" rx="0.675" ry="0.675"></ellipse><ellipse transform="matrix(1 -0.0051 0.0051 1 -0.2867 0.2649)" cx="52.046" cy="56.626" rx="0.675" ry="0.675"></ellipse><ellipse transform="matrix(1 -0.0053 0.0053 1 -0.3938 0.3195)" cx="60.071" cy="74.426" rx="0.675" ry="0.675"></ellipse><ellipse transform="matrix(1 -0.0053 0.0053 1 -0.4238 0.3454)" cx="64.95" cy="80.134" rx="0.675" ry="0.675"></ellipse><ellipse transform="matrix(1 -0.0053 0.0053 1 -0.4382 0.3554)" cx="66.81" cy="82.815" rx="0.675" ry="0.675"></ellipse><ellipse transform="matrix(1 -0.0051 0.0051 1 -0.4017 0.3589)" cx="70.359" cy="79.169" rx="0.675" ry="0.675"></ellipse><ellipse transform="matrix(1 -0.0053 0.0053 1 -0.3923 0.3864)" cx="72.85" cy="74.359" rx="0.675" ry="0.675"></ellipse><ellipse transform="matrix(1 -0.0051 0.0051 1 -0.3763 0.3953)" cx="77.689" cy="74.334" rx="0.675" ry="0.675"></ellipse><ellipse transform="matrix(1 -0.0051 0.0051 1 -0.3504 0.4077)" cx="80.152" cy="69.232" rx="0.675" ry="0.675"></ellipse><ellipse transform="matrix(1 -0.0053 0.0053 1 -0.3763 0.4092)" cx="76.997" cy="71.179" rx="0.675" ry="0.675"></ellipse><ellipse transform="matrix(1 -0.0051 0.0051 1 -0.3457 0.3302)" cx="64.888" cy="68.282" rx="0.675" ry="0.675"></ellipse><ellipse transform="matrix(1 -0.0052 0.0052 1 -0.0687 0.2814)" cx="54.189" cy="13.379" rx="0.675" ry="0.675"></ellipse><ellipse transform="matrix(1 -0.0052 0.0052 1 -0.1165 0.2405)" cx="45.811" cy="22.332" rx="0.675" ry="0.675"></ellipse><ellipse transform="matrix(1 -0.0052 0.0052 1 -0.115 0.2694)" cx="51.868" cy="22.301" rx="0.675" ry="0.675"></ellipse><ellipse transform="matrix(1 -0.0052 0.0052 1 -0.17 0.2699)" cx="51.923" cy="32.899" rx="0.675" ry="0.675"></ellipse><ellipse transform="matrix(1 -0.0052 0.0052 1 -0.1846 0.2888)" cx="54.978" cy="35.341" rx="0.675" ry="0.675"></ellipse><ellipse transform="matrix(1 -0.0052 0.0052 1 -0.2002 0.288)" cx="55.42" cy="38.736" rx="0.675" ry="0.675"></ellipse><ellipse transform="matrix(1 -0.0052 0.0052 1 -0.211 0.2748)" cx="52.855" cy="40.795" rx="0.675" ry="0.675"></ellipse><ellipse transform="matrix(1 -0.0053 0.0053 1 -0.2934 0.2928)" cx="55.083" cy="55.497" rx="0.675" ry="0.675"></ellipse><ellipse transform="matrix(1 -0.0051 0.0051 1 -0.2788 0.2512)" cx="49.347" cy="55.058" rx="0.675" ry="0.675"></ellipse><ellipse transform="matrix(1 -0.0053 0.0053 1 -0.3192 0.2769)" cx="52.066" cy="60.339" rx="0.675" ry="0.675"></ellipse><ellipse transform="matrix(1 -0.0053 0.0053 1 -0.3661 0.2989)" cx="56.326" cy="69.356" rx="0.675" ry="0.675"></ellipse><ellipse transform="matrix(1 -0.0052 0.0052 1 -0.2485 0.2669)" cx="51.327" cy="48.028" rx="0.675" ry="0.675"></ellipse><ellipse transform="matrix(1 -0.0051 0.0051 1 -0.2327 0.1838)" cx="35.697" cy="45.418" rx="0.675" ry="0.675"></ellipse></g></g></svg>